# xmcd CD database file
#
# Track frame offsets:
#	150
#	36331
#	72959
#	111411
#	146089
#	168908
#
# Disc length: 2703 seconds
#
# Revision: 2
# Processed by: cddbd v1.4PL0 Copyright (c) Steve Scherf et al.
# Submitted via: CDex 1.51
#
DISCID=560a8d06
DTITLE=Medwyn Goodall - Music for Crystal Healing
DYEAR=2001
DGENRE=New Age
TTITLE0=Medwyn Goodall - Amethyst
TTITLE1=Medwyn Goodall - Calcite
TTITLE2=Medwyn Goodall - Flourite
TTITLE3=Medwyn Goodall - Quartz
TTITLE4=Medwyn Goodall - Rose Quartz
TTITLE5=Medwyn Goodall - Green Tourmaline
EXTD=YEAR: 2001
EXTT0=
EXTT1=
EXTT2=
EXTT3=
EXTT4=
EXTT5=
PLAYORDER=
